<svg id="Logo_Primario" data-name="Logo Primario" xmlns="http://www.w3.org/2000/svg" width="600" height="157.033" viewBox="0 0 600 157.033">
  <g id="Raggruppa_244" data-name="Raggruppa 244" transform="translate(0 0)">
    <path id="Tracciato_161" data-name="Tracciato 161" d="M4.158,110.568a24.673,24.673,0,0,1-.8-4.938q-.433-4.075-.8-10.309t-.741-14.01q-.37-7.78-.679-15.988T.639,48.9Q.455,40.7.269,33.719T.023,21.436q-.066-5.305.061-7.777a5.291,5.291,0,0,1,1.543-3.7A9,9,0,0,1,5.145,7.918,13.474,13.474,0,0,1,9.651,7.3a16.85,16.85,0,0,1,4.444.678,10.543,10.543,0,0,1,3.395,1.668,3.018,3.018,0,0,1,1.359,2.407q0,.99-.185,5.309t-.37,10.679q-.185,6.359-.37,14.32t-.433,16.233q1.111-6.418,2.532-12.777t2.963-11.975q1.544-5.615,3.334-10.308a52.347,52.347,0,0,1,3.765-8.025,25.618,25.618,0,0,1,6.729-7.838,21.842,21.842,0,0,1,7.838-3.765,23.717,23.717,0,0,1,8.086-.557,22.192,22.192,0,0,1,7.036,1.913,16.435,16.435,0,0,1,5.309,3.889,12.512,12.512,0,0,1,2.9,5.37,62.748,62.748,0,0,1,1.543,11.851q.431,7.656.433,17.037T69.771,63.1q-.183,10.308-.247,19.751t.125,17.284A74.372,74.372,0,0,0,70.7,112.3a2.942,2.942,0,0,1-1.049,3.087,6.851,6.851,0,0,1-3.766,1.295,17.827,17.827,0,0,1-5.184-.432,17.321,17.321,0,0,1-5.371-2.16,15.622,15.622,0,0,1-4.32-3.888,9.7,9.7,0,0,1-1.914-5.679q-.247-5.555-.061-12.839t.494-15.431q.306-8.149.617-16.6t.431-16.235q.123-7.777-.122-14.382A73.965,73.965,0,0,0,49.34,17.979q-.863-4.446-2.407-6.3t-4.135,0a23.961,23.961,0,0,0-6.79,8.086,81.216,81.216,0,0,0-5.678,12.9A156.137,156.137,0,0,0,25.7,48.841Q23.662,57.61,22.057,66.8t-2.9,18.332Q17.861,94.275,17,102.3v2.716a11.466,11.466,0,0,0,.125,1.853,3.465,3.465,0,0,1-1.544,3.333,10.948,10.948,0,0,1-4.073,1.913A11.136,11.136,0,0,1,7,112.3a3.454,3.454,0,0,1-2.839-1.728" transform="translate(0 0.602)" fill="#df2435"/>
    <path id="Tracciato_162" data-name="Tracciato 162" d="M77.829,23.442a9.607,9.607,0,0,1,7.715.494,7.939,7.939,0,0,1,4.26,5.925,10.165,10.165,0,0,1-.063,4.013A11.874,11.874,0,0,1,88.2,37.7a12.631,12.631,0,0,1-2.777,3.149,12.477,12.477,0,0,1-3.766,2.1A9.272,9.272,0,0,1,74,42.393a8.454,8.454,0,0,1-4.32-5.865,10.951,10.951,0,0,1,1.6-7.9,11.677,11.677,0,0,1,6.543-5.184m22.837,40.738c0-.164.267-.224.8-.184a7.7,7.7,0,0,1,1.975.494,10.736,10.736,0,0,1,2.469,1.357,10.232,10.232,0,0,1,2.407,2.532,56.548,56.548,0,0,1-4.444,15.431A33.525,33.525,0,0,1,97.272,93.5a17.435,17.435,0,0,1-7.654,4.568,14.174,14.174,0,0,1-7.53.062,13.417,13.417,0,0,1-6.235-3.889,16.266,16.266,0,0,1-3.827-7.222,51.35,51.35,0,0,1-1.42-8.888q-.434-5.186-.555-10.309t-.062-9.444q.061-4.317.062-6.419,0-1.481,2.407-2.284a18,18,0,0,1,5.308-.864,15.188,15.188,0,0,1,5.37.8q2.469.863,2.718,2.716c0,.412-.044,1.461-.125,3.148s-.207,3.725-.37,6.11-.29,4.959-.37,7.715-.083,5.413,0,7.963a44.809,44.809,0,0,0,.679,6.79,8.766,8.766,0,0,0,1.668,4.2q1.481,1.731,3.023.8a9.186,9.186,0,0,0,2.964-3.395A41.77,41.77,0,0,0,96.037,79.8q1.3-3.4,2.284-6.605t1.6-5.74q.618-2.53.741-3.272" transform="translate(12.991 4.274)" fill="#df2435"/>
    <path id="Tracciato_163" data-name="Tracciato 163" d="M94.9,46.687a31.92,31.92,0,0,1,4.629-1.3,22.072,22.072,0,0,1,5.062-.494,11.236,11.236,0,0,1,4.135.8,3.1,3.1,0,0,1,1.975,2.592V50.7q0,1.791.125,4.506a29.064,29.064,0,0,1,4.917-8.827,13.836,13.836,0,0,1,5.654-4.259,17.222,17.222,0,0,1,6.637-.926,14.233,14.233,0,0,1,6.148,1.666,11.574,11.574,0,0,1,4.362,4.2,11.42,11.42,0,0,1,1.415,6.789q-.367,4.693-1.287,10.679t-1.346,11.3a47.95,47.95,0,0,0-.063,8.7q.369,3.4,2.573,2.9a4.329,4.329,0,0,0,2.468-2.16,27.654,27.654,0,0,0,2.347-4.691q1.111-2.779,2.159-5.988t1.791-6.111q.741-2.9,1.234-5t.617-2.717c0-.163.328-.224.988-.184a9.255,9.255,0,0,1,2.285.494,11.916,11.916,0,0,1,2.776,1.42,9.755,9.755,0,0,1,2.593,2.592q-2.1,8.4-4.2,14.568a35.405,35.405,0,0,1-5,10,15.856,15.856,0,0,1-6.788,5.371,18.6,18.6,0,0,1-9.4.8,10.529,10.529,0,0,1-6.615-2.9,14.811,14.811,0,0,1-3.437-5.865,26.376,26.376,0,0,1-1.171-7.715,75.992,75.992,0,0,1,.372-8.643q.431-4.378.988-8.517t.679-7.346q.246-4.565-1.42-5t-4.136,3.518a29.792,29.792,0,0,0-2.654,7.1Q114.9,65.576,113.6,71.439t-2.16,11.111a52.805,52.805,0,0,0-.865,7.591c0,.166-.042.207-.123.125q-.37.988-2.407,1.357a9.187,9.187,0,0,1-4.506-.432,11.549,11.549,0,0,1-7.777-9.813q-.5-3.085-.8-6.79t-.432-7.593q-.125-3.888-.123-7.53t.062-6.482q.061-2.838.185-4.567t.247-1.728" transform="translate(17.645 7.694)" fill="#df2435"/>
    <path id="Tracciato_164" data-name="Tracciato 164" d="M143.878,102.7q.121-1.852.185-5.37t.185-8.025q.119-4.506.184-9.629t.125-10.185q.061-5.062.062-9.629V51.836q0-1.481,2.345-2.53a17.3,17.3,0,0,1,5.246-1.358,14.962,14.962,0,0,1,5.309.309q2.407.62,2.654,2.469.121,1.606.125,4.876t-.186,7.284q-.185,4.013-.37,8.518t-.432,8.642q-.249,4.136-.494,7.653t-.247,5.618a40.371,40.371,0,0,0,5.246-6.79,79.822,79.822,0,0,0,4.136-7.591q1.852-3.89,3.333-7.716T174,64.181q0-.246.988-.184a8.736,8.736,0,0,1,2.346.554,15.226,15.226,0,0,1,2.839,1.421,8.9,8.9,0,0,1,2.592,2.529,68.659,68.659,0,0,1-3.333,9.568A79.72,79.72,0,0,1,174,88.563a77.453,77.453,0,0,1-7.222,9.937,44.676,44.676,0,0,1-8.7,7.9q-.493,7.406-1.295,13.147t-1.853,10.061a58.69,58.69,0,0,1-2.284,7.469,55.478,55.478,0,0,1-2.469,5.494,20.88,20.88,0,0,1-5.37,6.542,16.885,16.885,0,0,1-6.605,3.271,13.6,13.6,0,0,1-12.963-3.766,17.194,17.194,0,0,1-4.257-7.653,21.087,21.087,0,0,1-.186-9.506,28.834,28.834,0,0,1,3.025-8.517,41.6,41.6,0,0,1,5.246-7.469,61.968,61.968,0,0,1,6.852-6.667q3.767-3.148,7.963-6.11m-9.753,42.96a5.871,5.871,0,0,0,2.654-2.222,20.43,20.43,0,0,0,2.716-5.555,59.736,59.736,0,0,0,2.284-9.506q.992-5.8,1.606-14.074a30.865,30.865,0,0,0-10.061,10.432,29.323,29.323,0,0,0-3.7,10.556,14.838,14.838,0,0,0,.864,7.9q1.421,3.085,3.643,2.469m7.653-109.13a10.488,10.488,0,0,1,.063-4.075,11.213,11.213,0,0,1,1.543-3.827,13.2,13.2,0,0,1,2.776-3.086,12.494,12.494,0,0,1,3.766-2.1,9.447,9.447,0,0,1,7.653.494,8.324,8.324,0,0,1,4.322,5.925,10.142,10.142,0,0,1-.062,4.013A11.909,11.909,0,0,1,160.3,37.7a12.659,12.659,0,0,1-2.779,3.149,12.485,12.485,0,0,1-3.765,2.1,9.439,9.439,0,0,1-7.654-.494,8.321,8.321,0,0,1-4.322-5.925" transform="translate(22.493 4.274)" fill="#df2435"/>
    <path id="Tracciato_165" data-name="Tracciato 165" d="M196.772,73.753q-1.481,7.533-4.382,11.606a16.211,16.211,0,0,1-6.543,5.678,14.073,14.073,0,0,1-7.406,1.173,19.5,19.5,0,0,1-6.852-2.037,10.919,10.919,0,0,1-5.184-6.111,31.538,31.538,0,0,1-2.037-9.876,59.1,59.1,0,0,1,3.456-22.715,31.806,31.806,0,0,1,4.691-8.641q2.779-3.518,6.11-4.012a18.288,18.288,0,0,1,5.988,0,15.946,15.946,0,0,1,5.741,2.036,12.644,12.644,0,0,1,4.32,4.383,14.393,14.393,0,0,1,1.852,7.159l-.37-11.481q0-1.481,2.347-2.344a15.282,15.282,0,0,1,5.308-.865,17.52,17.52,0,0,1,5.431.8q2.469.8,2.716,2.654a18.541,18.541,0,0,1-.122,3.457q-.249,2.841-.555,6.851t-.494,8.7q-.185,4.695-.123,8.95a56.411,56.411,0,0,0,.554,7.531,8.912,8.912,0,0,0,1.606,4.506q1.481,1.731,3.024,1.42a5.208,5.208,0,0,0,2.9-1.914,16.552,16.552,0,0,0,2.469-4.2,52.6,52.6,0,0,0,1.976-5.431,48.689,48.689,0,0,0,1.358-5.616,27.973,27.973,0,0,0,.494-4.754q0-.246,1.111-.494a10.526,10.526,0,0,1,2.655-.185,10.141,10.141,0,0,1,3.271.742,6.136,6.136,0,0,1,2.839,2.282,35.682,35.682,0,0,1-3.766,13.766,25.978,25.978,0,0,1-7.159,8.7,19.228,19.228,0,0,1-8.827,3.766,17.022,17.022,0,0,1-8.7-.865,14.842,14.842,0,0,1-6.727-5.246,16.717,16.717,0,0,1-2.964-9.383m-14.814,9.259a3.179,3.179,0,0,0,4.26-.309,13.57,13.57,0,0,0,3.209-5.431,46.585,46.585,0,0,0,2.037-8.333,53,53,0,0,0,.679-9.012,31.847,31.847,0,0,0-.926-7.593q-.865-3.269-2.716-4.012-1.978-.862-3.765,1.049a16.7,16.7,0,0,0-3.149,5.431,43.8,43.8,0,0,0-2.16,7.9,51.305,51.305,0,0,0-.864,8.517,29.18,29.18,0,0,0,.741,7.407q.8,3.272,2.654,4.382" transform="translate(30.707 7.047)" fill="#df2435"/>
    <path id="Tracciato_166" data-name="Tracciato 166" d="M230.136,7.594a27.149,27.149,0,0,1,9.259-5.74A29.3,29.3,0,0,1,249.95,0a31.778,31.778,0,0,1,10.493,1.913,25.782,25.782,0,0,1,8.95,5.431,24.028,24.028,0,0,1,5.925,8.95,28,28,0,0,1,1.606,12.285q-.125,1.729-2.654,2.529a22.824,22.824,0,0,1-5.556.988,21.361,21.361,0,0,1-5.494-.307q-2.471-.493-2.469-1.481.37-9.632-1.6-15.062t-4.876-7.1a5.3,5.3,0,0,0-5.926.309q-3.025,1.976-4.63,7.159-.741,2.347-1.789,7.654T239.89,35.68q-.992,7.1-1.853,15.369t-1.111,16.543q-.249,8.272.185,15.925a70.89,70.89,0,0,0,1.913,13.457,23.577,23.577,0,0,0,4.2,9.134,8.02,8.02,0,0,0,7.037,3.087,6.126,6.126,0,0,0,4.691-2.779,23.922,23.922,0,0,0,3.334-6.727,58.715,58.715,0,0,0,2.16-8.889,85.559,85.559,0,0,0,1.049-9.506q.121-1.727,2.964-2.777a14.334,14.334,0,0,1,6.11-.8,9.638,9.638,0,0,1,5.618,2.223q2.343,1.976,1.481,6.3-1.606,10.99-6.358,18.148A31.077,31.077,0,0,1,260.2,114.935a27.274,27.274,0,0,1-13.518,3.271,28.611,28.611,0,0,1-13.456-3.58A32.213,32.213,0,0,1,222.3,104.5a36.162,36.162,0,0,1-5.865-16.3q-.863-6.42-1.234-13.826T215.077,59.2q.244-7.778,1.234-15.431a115.975,115.975,0,0,1,2.776-14.506,68.075,68.075,0,0,1,4.507-12.468,30.783,30.783,0,0,1,6.542-9.2" transform="translate(40.181 0)" fill="#df2435"/>
    <path id="Tracciato_167" data-name="Tracciato 167" d="M317.821,50.545a37.476,37.476,0,0,1,1.79,8.025,67.787,67.787,0,0,1,.432,9.753,8.687,8.687,0,0,0,7.161-1.111,10.27,10.27,0,0,0,4.32-6.05q.247-1.111,1.544-.864a9,9,0,0,1,2.716,1.05,14.552,14.552,0,0,1,2.469,1.728q1.047.924.926,1.295a34.672,34.672,0,0,1-4.32,6.667,18.646,18.646,0,0,1-4.63,4.012,14.465,14.465,0,0,1-5.123,1.853,24.381,24.381,0,0,1-5.8.184,48.323,48.323,0,0,1-2.469,9.753,18.451,18.451,0,0,1-5.988,8.272,20.17,20.17,0,0,1-8.826,3.951,22.127,22.127,0,0,1-9.568-.371,18.2,18.2,0,0,1-8.21-4.567,24.3,24.3,0,0,1-5.678-9.381,42.38,42.38,0,0,1-2.285-11.914,55.353,55.353,0,0,1,.8-12.467,39.157,39.157,0,0,1,3.579-11.05,21.146,21.146,0,0,1,5.434-7.1,11.426,11.426,0,0,1,5.554-2.469,8.659,8.659,0,0,1,4.939.8,11.91,11.91,0,0,1,3.518,2.532,4.146,4.146,0,0,1,1.3,2.716q0,1.3-1.729,1.543-1.36.125-2.592,2.407a26.345,26.345,0,0,0-2.16,5.865,64.178,64.178,0,0,0-1.481,7.963,69.648,69.648,0,0,0-.555,8.764,59.867,59.867,0,0,0,.555,8.333,19.483,19.483,0,0,0,1.913,6.482,7.041,7.041,0,0,0,3.456,3.395q2.1.865,5.186-.987,2.343-1.358,3.641-5.432a44.67,44.67,0,0,0,1.791-9.259,13.444,13.444,0,0,1-5.062-4.2,17.241,17.241,0,0,1-2.654-5.556,18.946,18.946,0,0,1-.618-6.11,23.915,23.915,0,0,1,1.05-5.863,10.358,10.358,0,0,1,3.209-4.939,10,10,0,0,1,4.63-2.284,7.237,7.237,0,0,1,4.629.679,6.57,6.57,0,0,1,3.209,3.95" transform="translate(51.627 7.416)" fill="#df2435"/>
    <path id="Tracciato_168" data-name="Tracciato 168" d="M354.7,17.4a10.87,10.87,0,0,1,1.543-5.556,11.014,11.014,0,0,1,3.518-3.518A12.829,12.829,0,0,1,364.273,6.6a15.028,15.028,0,0,1,4.444-.186,7.141,7.141,0,0,1,3.333,1.174,2.735,2.735,0,0,1,1.3,2.284q0,.99-.555,5.555t-1.234,11.235q-.68,6.666-1.481,14.752t-1.358,16.11q-.555,8.028-.741,15.308a103.225,103.225,0,0,0,.307,12.346q.493,5.062,1.791,7.283t3.765.123a14.676,14.676,0,0,0,3.456-5.431A81.986,81.986,0,0,0,380.2,79q1.3-4.321,2.16-8.21t1.234-5.741q0-.246,1.234-.617a10.14,10.14,0,0,1,2.9-.37,12.344,12.344,0,0,1,3.4.494,5.114,5.114,0,0,1,2.839,2.1,93.955,93.955,0,0,1-3.888,17.037,49.538,49.538,0,0,1-5.309,11.233,20.15,20.15,0,0,1-6.235,6.3,13.946,13.946,0,0,1-13.023,1.049,22.939,22.939,0,0,1-5.741-3.395,13.645,13.645,0,0,1-3.889-5.371,41.278,41.278,0,0,1-2.531-8.457q-1.481,7.778-4.567,11.913a16.771,16.771,0,0,1-6.729,5.679,14.01,14.01,0,0,1-7.406,1.049,21.072,21.072,0,0,1-6.729-1.975,11.325,11.325,0,0,1-5.124-6.11,30.714,30.714,0,0,1-2.1-9.938,55.482,55.482,0,0,1,.616-11.544,57.629,57.629,0,0,1,2.84-11.171,31.593,31.593,0,0,1,4.691-8.7q2.779-3.52,6.11-4.012a21.247,21.247,0,0,1,5.124-.123,15.828,15.828,0,0,1,5,1.295,13.455,13.455,0,0,1,4.2,2.965,12.629,12.629,0,0,1,2.839,4.875q.123-6.3.494-12.53t.8-11.788q.431-5.557.8-10.063T354.7,17.4m-16.42,77.156a3.14,3.14,0,0,0,4.26-.37,14.163,14.163,0,0,0,3.209-5.493,46.559,46.559,0,0,0,2.037-8.333,53.022,53.022,0,0,0,.679-9.012,31.834,31.834,0,0,0-.926-7.591q-.867-3.271-2.716-4.013-1.978-.862-3.766,1.111a17.666,17.666,0,0,0-3.148,5.432,41.971,41.971,0,0,0-2.16,7.9,52.463,52.463,0,0,0-.864,8.579,29.173,29.173,0,0,0,.741,7.407q.8,3.272,2.654,4.382" transform="translate(59.926 1.182)" fill="#df2435"/>
    <path id="Tracciato_169" data-name="Tracciato 169" d="M380.393,23.442a9.607,9.607,0,0,1,7.715.494,7.939,7.939,0,0,1,4.26,5.925,10.165,10.165,0,0,1-.063,4.013,11.874,11.874,0,0,1-1.543,3.827,12.631,12.631,0,0,1-2.777,3.149,12.477,12.477,0,0,1-3.766,2.1,9.271,9.271,0,0,1-7.653-.554,8.454,8.454,0,0,1-4.32-5.865,10.951,10.951,0,0,1,1.6-7.9,11.677,11.677,0,0,1,6.543-5.184M403.23,64.181c0-.164.267-.224.8-.184a7.7,7.7,0,0,1,1.975.494,10.735,10.735,0,0,1,2.469,1.357,10.233,10.233,0,0,1,2.407,2.532,56.55,56.55,0,0,1-4.444,15.431,33.525,33.525,0,0,1-6.605,9.691,17.435,17.435,0,0,1-7.654,4.568,14.174,14.174,0,0,1-7.53.062,13.416,13.416,0,0,1-6.235-3.889,16.266,16.266,0,0,1-3.827-7.222,51.357,51.357,0,0,1-1.42-8.888q-.434-5.186-.555-10.309t-.063-9.444q.062-4.317.063-6.419,0-1.481,2.406-2.284a18.013,18.013,0,0,1,5.309-.864,15.189,15.189,0,0,1,5.37.8q2.469.863,2.718,2.716c0,.412-.044,1.461-.125,3.148s-.207,3.725-.37,6.11-.29,4.959-.37,7.715-.083,5.413,0,7.963a44.809,44.809,0,0,0,.679,6.79,8.765,8.765,0,0,0,1.668,4.2q1.481,1.731,3.023.8a9.186,9.186,0,0,0,2.964-3.395A41.771,41.771,0,0,0,398.6,79.8q1.3-3.4,2.284-6.605t1.6-5.74q.618-2.53.741-3.272" transform="translate(69.542 4.274)" fill="#df2435"/>
    <path id="Tracciato_170" data-name="Tracciato 170" d="M397.464,46.687a31.922,31.922,0,0,1,4.629-1.3,22.071,22.071,0,0,1,5.062-.494,11.236,11.236,0,0,1,4.135.8,3.1,3.1,0,0,1,1.975,2.592V50.7q0,1.791.125,4.506a29.064,29.064,0,0,1,4.917-8.827,13.836,13.836,0,0,1,5.654-4.259,17.222,17.222,0,0,1,6.637-.926,14.233,14.233,0,0,1,6.148,1.666,11.574,11.574,0,0,1,4.362,4.2,11.42,11.42,0,0,1,1.415,6.789q-.367,4.693-1.287,10.679t-1.346,11.3a47.953,47.953,0,0,0-.063,8.7q.369,3.4,2.573,2.9a4.329,4.329,0,0,0,2.468-2.16,27.652,27.652,0,0,0,2.347-4.691q1.111-2.779,2.159-5.988t1.791-6.111q.741-2.9,1.234-5t.617-2.717c0-.163.328-.224.987-.184a9.255,9.255,0,0,1,2.285.494,11.917,11.917,0,0,1,2.776,1.42,9.756,9.756,0,0,1,2.593,2.592q-2.1,8.4-4.2,14.568a35.406,35.406,0,0,1-5,10,15.855,15.855,0,0,1-6.788,5.371,18.6,18.6,0,0,1-9.4.8,10.529,10.529,0,0,1-6.615-2.9,14.812,14.812,0,0,1-3.437-5.865,26.377,26.377,0,0,1-1.171-7.715,76,76,0,0,1,.372-8.643q.431-4.378.988-8.517t.679-7.346q.246-4.565-1.42-5t-4.136,3.518a29.792,29.792,0,0,0-2.654,7.1q-1.421,5.124-2.716,10.987t-2.16,11.111a52.806,52.806,0,0,0-.865,7.591c0,.166-.042.207-.123.125q-.37.988-2.407,1.357a9.187,9.187,0,0,1-4.506-.432,11.549,11.549,0,0,1-7.777-9.813q-.5-3.085-.8-6.79t-.432-7.593q-.125-3.888-.123-7.53t.062-6.482q.061-2.838.185-4.567t.247-1.728" transform="translate(74.197 7.694)" fill="#df2435"/>
    <path id="Tracciato_171" data-name="Tracciato 171" d="M472.822,83.831a17.757,17.757,0,0,1-5,6.667,14.916,14.916,0,0,1-12.1,3.024,18.051,18.051,0,0,1-5.494-1.913,10.928,10.928,0,0,1-5.184-6.111,31.536,31.536,0,0,1-2.037-9.876,59.161,59.161,0,0,1,3.456-22.715,31.839,31.839,0,0,1,4.691-8.641,10.318,10.318,0,0,1,6.111-4.135,21.271,21.271,0,0,1,5.37-.062,14.88,14.88,0,0,1,5.186,1.543,14.429,14.429,0,0,1,4.259,3.333,11.97,11.97,0,0,1,2.593,5.432q.244-1.853.369-3.211t.247-2.345a2.167,2.167,0,0,1,1.421-1.606,9.569,9.569,0,0,1,3.148-.8,25.755,25.755,0,0,1,4.013-.062,16.482,16.482,0,0,1,3.95.679,10.936,10.936,0,0,1,3.024,1.42,2.524,2.524,0,0,1,1.236,2.1,105.553,105.553,0,0,1-.68,11.111q-.678,6.3-1.666,12.962T487.76,83.769q-.99,6.482-1.6,11.666a13.059,13.059,0,0,0,6.851-3.827,34.456,34.456,0,0,0,6.05-7.653,31.4,31.4,0,0,0,3.58-8.95,12.756,12.756,0,0,0-.307-7.84q-.741-1.729.247-2.654a4.71,4.71,0,0,1,2.838-1.112,10.871,10.871,0,0,1,4.136.494,12.783,12.783,0,0,1,4.2,2.16,9.36,9.36,0,0,1,2.9,3.828,8.948,8.948,0,0,1,.247,5.556,32.833,32.833,0,0,1-4.26,10.307,43.382,43.382,0,0,1-7.469,9.137,35.039,35.039,0,0,1-9.566,6.357,21.463,21.463,0,0,1-10.8,1.852q-1.362,7.038-2.779,12.345a89.271,89.271,0,0,1-2.963,9.259,65.84,65.84,0,0,1-3.086,6.851,44.594,44.594,0,0,1-3.149,5.124,20.2,20.2,0,0,1-6.048,5.8,16.78,16.78,0,0,1-6.974,2.469,14.146,14.146,0,0,1-6.79-.925,13.058,13.058,0,0,1-5.618-4.382,17.059,17.059,0,0,1-3.456-8.149,23.066,23.066,0,0,1,.555-9.011,32.146,32.146,0,0,1,3.828-8.889,39.808,39.808,0,0,1,6.294-7.84,41.881,41.881,0,0,1,7.963-6.05,27.653,27.653,0,0,1,8.89-3.395q.244-1.6.554-5.246t.8-7.222m-2.716,21.6A19.865,19.865,0,0,0,462.328,110a27.483,27.483,0,0,0-5.184,6.727,30.721,30.721,0,0,0-2.9,7.469,29.6,29.6,0,0,0-.926,6.914,12.253,12.253,0,0,0,.864,5q.862,1.912,2.345,1.666,2.713-.37,6.6-8.21t6.975-24.135m-2.963-55.677q-1.976-.862-3.765,1.049a16.687,16.687,0,0,0-3.148,5.432,43.773,43.773,0,0,0-2.161,7.9,51.317,51.317,0,0,0-.864,8.518,29.293,29.293,0,0,0,.741,7.407q.8,3.272,2.654,4.383a3.178,3.178,0,0,0,4.26-.31,13.548,13.548,0,0,0,3.209-5.431,46.562,46.562,0,0,0,2.037-8.333,52.9,52.9,0,0,0,.679-9.012,31.835,31.835,0,0,0-.926-7.591Q469,50.5,467.144,49.758" transform="translate(82.788 7.463)" fill="#df2435"/>
  </g>
</svg>
